<?xml version="1.0" encoding="UTF-8" standalone="no"?>
<!DOCTYPE svg PUBLIC "-//W3C//DTD SVG 1.1//EN"
 "http://www.w3.org/Graphics/SVG/1.1/DTD/svg11.dtd">
<!-- Generated by graphviz version 2.43.0 (0)
 -->
<!-- Title: G Pages: 1 -->
<svg width="600pt" height="137pt"
 viewBox="0.00 0.00 600.00 137.00" xmlns="http://www.w3.org/2000/svg" xmlns:xlink="http://www.w3.org/1999/xlink">
<g id="graph0" class="graph" transform="scale(1 1) rotate(0) translate(4 133)">
<title>G</title>
<polygon fill="white" stroke="transparent" points="-4,4 -4,-133 596,-133 596,4 -4,4"/>
<g id="clust1" class="cluster">
<title>cluster_n_github_com_gmiclotte_gofsplit</title>
<g id="a_clust1"><a xlink:href="https://pkg.go.dev/github.com/gmiclotte/gofsplit" xlink:title="github.com/gmiclotte/gofsplit">
<polygon fill="none" stroke="black" points="8,-46 8,-121 294,-121 294,-46 8,-46"/>
<text text-anchor="middle" x="151" y="-105.8" font-family="Times,serif" font-size="14.00">github.com/gmiclotte/gofsplit</text>
</a>
</g>
</g>
<!-- n_github_com_gmiclotte_gofsplit -->
<g id="node1" class="node">
<title>n_github_com_gmiclotte_gofsplit</title>
<g id="a_node1"><a xlink:title="github.com/gmiclotte/gofsplit" target="_graphviz">
<ellipse fill="none" stroke="#079139" stroke-width="2" stroke-opacity="0.698039" cx="34" cy="-72" rx="18" ry="18"/>
</a>
</g>
</g>
<!-- n_github_com_gmiclotte_gofsplit_of -->
<g id="node2" class="node">
<title>n_github_com_gmiclotte_gofsplit_of</title>
<g id="a_node2"><a xlink:href="https://pkg.go.dev/github.com/gmiclotte/gofsplit/of" xlink:title="github.com/gmiclotte/gofsplit/of" target="_graphviz">
<polygon fill="none" stroke="#180791" stroke-width="2" stroke-opacity="0.698039" points="286,-90 214,-90 214,-54 286,-54 286,-90"/>
<text text-anchor="start" x="222" y="-75" font-family="Times,serif" font-size="10.00">of</text>
<text text-anchor="start" x="222" y="-64" font-family="Times,serif" font-size="10.00">93 / 3.9KB</text>
</a>
</g>
</g>
<!-- n_github_com_gmiclotte_gofsplit&#45;&gt;n_github_com_gmiclotte_gofsplit_of -->
<g id="edge2" class="edge">
<title>n_github_com_gmiclotte_gofsplit:e&#45;&gt;n_github_com_gmiclotte_gofsplit_of</title>
<g id="a_edge2"><a xlink:title="github.com/gmiclotte/gofsplit &#45;&gt; github.com/gmiclotte/gofsplit/of">
<path fill="none" stroke="#180791" stroke-width="2" stroke-opacity="0.698039" d="M52,-72C103.96,-72 163.63,-72 203.56,-72"/>
<polygon fill="#180791" fill-opacity="0.698039" stroke="#180791" stroke-width="2" stroke-opacity="0.698039" points="203.77,-75.5 213.77,-72 203.77,-68.5 203.77,-75.5"/>
</a>
</g>
</g>
<!-- n_github_com_sirupsen_logrus -->
<g id="node3" class="node">
<title>n_github_com_sirupsen_logrus</title>
<g id="a_node3"><a xlink:href="https://pkg.go.dev/github.com/sirupsen/logrus" xlink:title="github.com/sirupsen/logrus" target="_graphviz">
<polygon fill="none" stroke="#91072a" stroke-width="2" stroke-opacity="0.698039" points="340,-36 160,-36 160,0 340,0 340,-36"/>
<text text-anchor="start" x="168" y="-21" font-family="Times,serif" font-size="10.00">github.com/sirupsen/logrus</text>
<text text-anchor="start" x="168" y="-10" font-family="Times,serif" font-size="10.00">1962 / 50.7KB</text>
</a>
</g>
</g>
<!-- n_github_com_gmiclotte_gofsplit&#45;&gt;n_github_com_sirupsen_logrus -->
<g id="edge1" class="edge">
<title>n_github_com_gmiclotte_gofsplit:e&#45;&gt;n_github_com_sirupsen_logrus</title>
<g id="a_edge1"><a xlink:title="github.com/gmiclotte/gofsplit &#45;&gt; github.com/sirupsen/logrus">
<path fill="none" stroke="#91072a" stroke-width="2" stroke-opacity="0.698039" d="M52,-72C101.82,-72 111.95,-55.15 160,-42 163.99,-40.91 168.09,-39.79 172.23,-38.66"/>
<polygon fill="#91072a" fill-opacity="0.698039" stroke="#91072a" stroke-width="2" stroke-opacity="0.698039" points="173.19,-42.03 181.92,-36.03 171.35,-35.27 173.19,-42.03"/>
</a>
</g>
</g>
<!-- n_golang_org_x_sys_unix -->
<g id="node4" class="node">
<title>n_golang_org_x_sys_unix</title>
<g id="a_node4"><a xlink:href="https://pkg.go.dev/golang.org/x/sys/unix" xlink:title="golang.org/x/sys/unix" target="_graphviz">
<polygon fill="none" stroke="#91076c" stroke-width="2" stroke-opacity="0.698039" points="592,-36 448,-36 448,0 592,0 592,-36"/>
<text text-anchor="start" x="456" y="-21" font-family="Times,serif" font-size="10.00">golang.org/x/sys/unix</text>
<text text-anchor="start" x="456" y="-10" font-family="Times,serif" font-size="10.00">11029 / 338.6KB</text>
</a>
</g>
</g>
<!-- n_github_com_sirupsen_logrus&#45;&gt;n_golang_org_x_sys_unix -->
<g id="edge3" class="edge">
<title>n_github_com_sirupsen_logrus:e&#45;&gt;n_golang_org_x_sys_unix</title>
<g id="a_edge3"><a xlink:title="github.com/sirupsen/logrus &#45;&gt; golang.org/x/sys/unix">
<path fill="none" stroke="#91076c" stroke-width="2" stroke-opacity="0.698039" d="M340,-18C371.83,-18 406.84,-18 437.4,-18"/>
<polygon fill="#91076c" fill-opacity="0.698039" stroke="#91076c" stroke-width="2" stroke-opacity="0.698039" points="437.58,-21.5 447.58,-18 437.58,-14.5 437.58,-21.5"/>
</a>
</g>
</g>
</g>
</svg>
